<?xml version="1.0"?>
<svg xmlns="http://www.w3.org/2000/svg" version="1.2" baseProfile="tiny" width="800" height="1009" viewBox="0 0 800 1009" stroke-linecap="round" stroke-linejoin="round">
<g id="Kenya counties">
<path d="M 573.68 936.53 568.01 939.57 572.79 944.52 565.72 941.27 565.94 939.7 573.68 936.53 Z M 578.05 932.86 585.2 936.67 578.51 946.46 573.94 936.34 578.05 932.86 Z" fill-rule="evenodd"/>
<path d="M 565.94 939.7 565.72 941.27 568.21 946.95 575.18 951.75 562.84 983.65 559.78 980.03 555.32 993.08 546.65 994.47 549.4 1004.27 540.21 1003.37 539.98 995.21 533.44 996.49 530.84 1007.64 454.1 954.18 503.91 936.58 512.46 916.29 502.54 910.33 506.21 904.25 514.77 909.33 517.83 897.71 541.1 897.41 546.92 921.53 565.94 939.7 Z"/>
<path d="M 626.97 813.52 624.6 844.5 632.84 840.08 624.56 849.57 621.14 869.84 606.23 879.85 602.61 876.18 606.02 881.42 597.78 901.18 588.29 903.58 596.01 906.39 591.8 923.3 585.42 935.64 578.05 932.86 573.94 936.34 573.68 936.53 565.94 939.7 546.92 921.53 541.1 897.41 517.83 897.71 531.12 848.11 598.19 772.71 626.97 813.52 Z"/>
<path d="M 482 550.41 503.09 554.19 511.46 548.14 523.09 557.72 551.91 562.92 568.13 578.2 572.86 594.75 590.8 602.74 614.72 668.01 630.1 745.59 633.79 781.46 683.4 787.6 669.74 797.67 657.79 790.27 653.32 795.48 661.06 794.99 643.41 800.85 645 794.6 626.97 813.52 598.19 772.71 531.12 848.11 515.61 845.51 471.78 784.36 489.24 777.14 510.87 733.79 505.19 712.94 509.3 710.56 505.44 648.05 451.32 551.06 451.36 550.96 464.47 545.64 482 550.41 Z"/>
<path d="M 697.88 767 700.2 771.93 690.15 775.53 697.88 767 Z M 705.86 764.44 701.66 770.3 699.07 764.41 702.74 768.42 705.86 764.44 Z M 729.44 760.49 726.48 763.45 732.03 756.96 729.44 760.49 Z M 719.71 747.63 724.77 750.67 719.23 756.12 705.76 753.91 719.71 747.63 Z M 683.4 787.6 633.79 781.46 630.1 745.59 699.21 713.61 764.82 707.84 740.22 738.24 732.57 737.05 731.57 730.84 709.5 746.79 707.19 736.82 712.95 728.77 704.95 736.72 703.47 750.07 696.14 737.2 686.18 736.38 699.04 743.71 693.87 749.41 700.07 751.5 701.42 764.41 696.95 761.05 687.13 768.48 678.66 762.86 689.36 773.93 684.98 781.69 691.21 779.4 683.4 787.6 Z" fill-rule="evenodd"/>
<path d="M 459.45 839.73 490.07 848.41 515.61 845.51 531.12 848.11 517.83 897.71 514.77 909.33 506.21 904.25 502.54 910.33 512.46 916.29 503.91 936.58 454.1 954.18 388.25 908.3 384.48 895.34 369.8 892.88 369.43 884.67 381.2 872.03 379.29 859.14 395.01 859.26 403.38 818.77 425.72 809.64 459.45 839.73 Z"/>
<path d="M 708.15 498 708.09 626.38 764.82 707.84 699.21 713.61 630.1 745.59 614.72 668.01 590.8 602.74 572.86 594.75 568.13 578.2 551.91 562.92 523.09 557.72 511.46 548.14 503.09 554.19 482 550.41 484.74 524.96 475.35 493.41 523.47 475.38 540.3 452.56 555.28 445.53 582.34 491.97 642.02 524.36 673.72 521.11 708.15 498 Z"/>
<path d="M 707.98 328.26 708.15 498 673.72 521.11 642.02 524.36 582.34 491.97 555.28 445.53 536.76 397.93 553.63 391.97 530.01 374.65 505.42 336.3 498.19 292.13 509.14 286.52 516.07 258.39 543.66 239.74 541.69 197 564.33 206.97 587.42 178.12 587.54 213.45 612.2 223.42 635.69 249.63 658.07 259.74 658.89 274.7 676.43 308.73 707.98 328.26 Z"/>
<path d="M 707.98 328.26 676.43 308.73 658.89 274.7 658.07 259.74 635.69 249.63 612.2 223.42 587.54 213.45 587.42 178.12 595.94 160.47 684.6 119.3 728.04 153.63 799 149.16 741.31 231.28 708.03 263.98 707.98 328.26 Z"/>
<path d="M 541.69 197 543.66 239.74 516.07 258.39 509.14 286.52 498.19 292.13 505.42 336.3 447.94 369.31 443.54 387.62 404.11 418.47 404.64 406.41 394.63 399.22 367.6 408.83 337.08 358.69 325.92 349.29 301.55 343.94 285.57 294.39 280.12 294.92 279.98 259.91 254.49 250.44 231.12 214 235.7 209.16 231.77 179.96 238 172.21 227.94 152.4 235.27 133.32 227.47 102.36 294.44 102.77 307.66 107.93 422.34 186.43 454.18 186.83 463.23 181.63 499.65 195.7 541.69 197 Z"/>
<path d="M 555.28 445.53 540.3 452.56 523.47 475.38 475.35 493.41 484.74 524.96 482 550.41 464.47 545.64 451.36 550.96 428.59 520.84 415.7 477.57 368.27 496.38 370.05 508.97 363.16 517.95 347.43 517.26 346.52 493.23 296.06 487.47 302.74 470.4 335.28 468.24 346.04 485.74 362.81 487.93 410.88 464.16 417.47 466.44 404.11 418.47 443.54 387.62 447.94 369.31 505.42 336.3 530.01 374.65 553.63 391.97 536.76 397.93 555.28 445.53 Z"/>
<path d="M 451.36 550.96 451.32 551.06 440.35 549.36 422.27 539.03 401.17 537.39 404.55 543.85 382.65 563.83 340.44 558.98 340.39 558.96 340.35 558.93 321.7 545.99 318.37 541.8 334.83 534.48 347.43 517.26 363.16 517.95 370.05 508.97 368.27 496.38 415.7 477.57 428.59 520.84 451.36 550.96 Z"/>
<path d="M 364.81 579.81 340.44 558.98 382.65 563.83 404.55 543.85 401.17 537.39 422.27 539.03 440.35 549.36 420.89 571.49 409.4 570.29 403.16 586.48 398.13 578.09 382.21 588.95 364.81 579.81 Z"/>
<path d="M 364.81 579.81 382.21 588.95 398.13 578.09 403.16 586.48 397.69 597.13 400.85 617.38 394.08 624.47 380.23 621.52 361.45 634.94 336.41 621.95 359.22 616.45 340.39 558.96 340.44 558.98 364.81 579.81 Z"/>
<path d="M 451.32 551.06 505.44 648.05 509.3 710.56 505.19 712.94 510.87 733.79 489.24 777.14 471.78 784.36 515.61 845.51 490.07 848.41 459.45 839.73 436.91 784.41 421.27 773.38 414.4 759.08 406.11 758.58 401.59 732.71 384.91 699.35 379.08 692.6 391.37 687.54 390 682.24 369.05 651.85 389.6 654.88 396.42 640.9 394.08 624.47 400.85 617.38 397.69 597.13 403.16 586.48 409.4 570.29 420.89 571.49 440.35 549.36 451.32 551.06 Z"/>
<path d="M 394.08 624.47 396.42 640.9 389.6 654.88 369.05 651.85 390 682.24 391.37 687.54 379.08 692.6 384.91 699.35 375.68 707.14 369.49 697.87 347.57 694.68 343.16 698.76 350.91 711.44 340.94 712.7 337.64 719.3 329.37 714.91 325.75 720.6 305.46 697.02 307.53 690.36 298.1 691.27 298.74 684.16 298.74 684.15 298.75 684.09 305.8 687.19 300.55 679.33 319.95 668.81 330.83 651.01 345.91 652.48 351.72 646.59 332.29 628.57 336.38 621.95 336.41 621.95 361.45 634.94 380.23 621.52 394.08 624.47 Z"/>
<path d="M 384.91 699.35 401.59 732.71 406.11 758.58 414.4 759.08 421.27 773.38 436.91 784.41 459.45 839.73 425.72 809.64 403.38 818.77 369.31 773.25 381.99 761.03 328.42 735.77 325.75 720.6 329.37 714.91 337.64 719.3 340.94 712.7 350.91 711.44 343.16 698.76 347.57 694.68 369.49 697.87 375.68 707.14 384.91 699.35 Z"/>
<path d="M 275.68 558.96 270.11 580.56 277.69 602.28 281.9 623.84 275.12 619.72 265.16 635.19 260.95 604.48 250.03 600.7 245.73 581.4 232.26 578.14 229.83 557.41 235.91 544.1 252.31 539.71 256.26 530.29 273.39 542.57 264.9 550.73 275.68 558.96 Z"/>
<path d="M 321.7 545.99 340.35 558.93 324.25 596.19 326.57 607.13 308.39 601 277.69 602.28 270.11 580.56 275.68 558.96 292.77 554.12 295.34 569.16 305.53 571.84 311.66 561.55 307.47 550.88 317.48 542.61 321.7 545.99 Z"/>
<path d="M 336.41 621.95 336.38 621.95 326.57 607.13 324.25 596.19 340.35 558.93 340.39 558.96 359.22 616.45 336.41 621.95 Z"/>
<path d="M 324.05 647.98 281.9 623.84 277.69 602.28 308.39 601 326.57 607.13 336.38 621.95 332.29 628.57 351.72 646.59 345.91 652.48 336.11 644.79 324.05 647.98 Z"/>
<path d="M 324.05 647.98 336.11 644.79 345.91 652.48 330.83 651.01 319.95 668.81 315.96 663.37 302.81 665.1 299.84 658.95 276.34 674.28 258.89 669.86 263.49 658.32 269.76 642.41 265.16 635.19 275.12 619.72 281.9 623.84 324.05 647.98 Z"/>
<path d="M 270.09 305.55 282.26 315.65 281.13 323.3 266.31 335.38 256.24 383.62 249.28 392.75 246.83 385.72 239.34 392.85 238.83 398.75 256.45 405.44 249.15 413.72 255.12 418.93 249.5 417.36 248.69 426.34 254.15 427.67 255.27 443.74 249.26 453.74 227.21 427.91 219.44 427.95 188.51 379.7 159.78 368.68 146.4 352.41 133.33 288.27 127.52 282.14 123.27 280.67 120.04 295.36 111.2 292.5 110.33 302.31 105.7 300.15 87.75 275.91 86.73 263.37 70.32 253.4 67.92 236.09 56.15 227.65 49.54 197.05 55.89 193.88 56.94 179.37 27.69 169.43 32.82 159.02 19.85 160 24.11 150.39 10.01 123.96 123 21.28 135.93 1.96 165.33 1 196 14.97 194.59 53.99 200.68 58.97 207 90.44 193.81 185.79 201.2 198.09 204.18 191.91 204.95 213.34 225.32 224.83 222.41 248.34 235.52 249.92 248.13 262.57 263.63 305.12 270.09 305.55 Z"/>
<path d="M 165.79 416.33 142.49 432.86 125.06 424.87 118.33 427.95 111.07 419.31 91.82 418.71 88.34 403.42 108.99 378.67 112.45 352.68 98.27 305.97 105.7 300.15 110.33 302.31 111.2 292.5 120.04 295.36 123.27 280.67 127.52 282.14 133.33 288.27 146.4 352.41 159.78 368.68 188.51 379.7 179.57 413.09 165.79 416.33 Z"/>
<path d="M 404.11 418.47 417.47 466.44 410.88 464.16 362.81 487.93 346.04 485.74 335.28 468.24 302.74 470.4 296.36 470.83 289.09 457.7 281.05 462.78 258.7 460.05 249.26 453.74 255.27 443.74 254.15 427.67 248.69 426.34 249.5 417.36 255.12 418.93 249.15 413.72 256.45 405.44 238.83 398.75 239.34 392.85 246.83 385.72 249.28 392.75 256.24 383.62 266.31 335.38 281.13 323.3 282.26 315.65 270.09 305.55 280.12 294.92 285.57 294.39 301.55 343.94 325.92 349.29 337.08 358.69 367.6 408.83 394.63 399.22 404.64 406.41 404.11 418.47 Z"/>
<path d="M 125.06 424.87 146.02 442.7 145.76 450.16 121.22 456.34 121.23 456.36 121.23 456.42 111.8 455.87 90.71 463.89 89.59 453.08 67.85 429.82 91.82 418.71 111.07 419.31 118.33 427.95 125.06 424.87 Z"/>
<path d="M 168.68 527.13 162.06 542.49 153.59 542.14 124.43 497.91 126.49 489.71 95.07 489.67 98.83 483.7 125.33 478.3 121.23 456.42 121.23 456.36 121.22 456.34 145.76 450.16 158.71 456.95 160.22 474.07 150.79 474.17 157.92 485.48 158.35 519.18 168.68 527.13 Z"/>
<path d="M 165.79 416.33 179.57 413.09 169.4 483.22 175.82 505.61 182.07 509.2 182.1 522.75 168.68 527.13 158.35 519.18 157.92 485.48 150.79 474.17 160.22 474.07 158.71 456.95 145.76 450.16 146.02 442.7 125.06 424.87 142.49 432.86 165.79 416.33 Z"/>
<path d="M 153.59 542.14 147.14 554.68 132.45 554.4 131.91 547.45 120.01 544.29 116.33 550.56 90.66 546.05 92.95 541.53 84.44 546.16 102.39 524.26 107.69 520.12 105.45 502.59 95.07 489.67 126.49 489.71 124.43 497.91 153.59 542.14 Z"/>
<path d="M 188.51 379.7 219.44 427.95 227.21 427.91 249.26 453.74 258.7 460.05 237.55 481.29 234.02 513.22 243.16 526.5 238.38 531.57 227.86 521.2 219.1 545.06 203.88 534.53 204.75 549.03 190.05 553.92 185.54 566.35 173.91 550.03 173.92 550.01 173.91 550.01 162.06 542.49 168.68 527.13 182.1 522.75 182.07 509.2 175.82 505.61 169.4 483.22 179.57 413.09 188.51 379.7 Z"/>
<path d="M 302.74 470.4 296.06 487.47 346.52 493.23 347.43 517.26 334.83 534.48 318.37 541.8 321.7 545.99 317.48 542.61 307.47 550.88 311.66 561.55 305.53 571.84 295.34 569.16 292.77 554.12 275.68 558.96 264.9 550.73 273.39 542.57 256.26 530.29 252.31 539.71 235.91 544.1 238.38 531.57 243.16 526.5 234.02 513.22 237.55 481.29 258.7 460.05 281.05 462.78 289.09 457.7 296.36 470.83 302.74 470.4 Z"/>
<path d="M 238.38 531.57 235.91 544.1 229.83 557.41 232.26 578.14 245.73 581.4 250.03 600.7 260.95 604.48 265.16 635.19 269.76 642.41 263.49 658.32 243.36 647.78 236.18 634.64 228.3 634.62 229.08 619.99 219.49 607.43 204.39 614.68 197.62 608.47 208.05 606.5 193.45 590.22 180.96 598.82 174.42 613.57 165.47 603.26 154.92 580.04 151.19 574.01 174.68 570.7 176.76 560.2 169.47 556.76 173.91 550.03 185.54 566.35 190.05 553.92 204.75 549.03 203.88 534.53 219.1 545.06 227.86 521.2 238.38 531.57 Z"/>
<path d="M 243.36 647.78 244.59 660.4 214.81 691.96 218.42 699.97 209.97 752.76 82.94 681.86 69.16 647.6 74.02 640.16 111.14 632.33 133.93 646.91 146.45 640.93 164.51 622.21 149.55 607.9 165.47 603.26 174.42 613.57 180.96 598.82 193.45 590.22 208.05 606.5 197.62 608.47 204.39 614.68 219.49 607.43 229.08 619.99 228.3 634.62 236.18 634.64 243.36 647.78 Z"/>
<path d="M 263.49 658.32 258.89 669.86 276.34 674.28 298.75 684.09 298.74 684.15 298.74 684.16 298.1 691.27 307.53 690.36 305.46 697.02 325.75 720.6 328.42 735.77 381.99 761.03 369.31 773.25 403.38 818.77 395.01 859.26 379.29 859.14 376.93 847.29 363.17 838.17 209.97 752.76 218.42 699.97 214.81 691.96 244.59 660.4 243.36 647.78 263.49 658.32 Z"/>
<path d="M 162.06 542.49 173.91 550.01 173.92 550.01 173.91 550.03 169.47 556.76 176.76 560.2 174.68 570.7 151.19 574.01 154.92 580.04 133.05 585.91 127.56 593.26 132.98 604.95 127.69 609.2 118.14 610.83 115.55 605.02 111.8 584.9 110.85 582.7 122.65 559.33 144.03 567.76 132.45 554.4 147.14 554.68 153.59 542.14 162.06 542.49 Z"/>
<path d="M 165.47 603.26 149.55 607.9 164.51 622.21 146.45 640.93 133.93 646.91 111.14 632.33 111.14 632.26 118.98 623.63 115.55 605.02 118.14 610.83 127.69 609.2 132.98 604.95 127.56 593.26 133.05 585.91 154.92 580.04 165.47 603.26 Z"/>
<path d="M 121.23 456.42 125.33 478.3 98.83 483.7 95.07 489.67 105.45 502.59 107.69 520.12 102.39 524.26 95.06 525.57 95.01 525.65 93.84 525.69 93.77 525.72 65.52 535 52.24 529.03 54.06 522.35 48.25 526.23 46.97 513.41 52.01 507.02 44.11 501.85 48.92 497.56 64.83 497.22 68.75 502.24 76.4 498.25 102.85 470.33 116.21 468.33 111.8 455.87 121.23 456.42 Z"/>
<path d="M 102.39 524.26 84.44 546.16 63.09 545.5 65.52 535 93.77 525.72 93.84 525.69 95.01 525.65 95.06 525.57 102.39 524.26 Z"/>
<path d="M 111.8 455.87 116.21 468.33 102.85 470.33 76.4 498.25 68.75 502.24 64.83 497.22 48.92 497.56 46.78 483.92 53.2 470.37 45.93 466.83 67.85 429.82 89.59 453.08 90.71 463.89 111.8 455.87 Z"/>
<path d="M 45.93 466.83 53.2 470.37 46.78 483.92 48.92 497.56 44.11 501.85 52.01 507.02 46.97 513.41 30.11 518.09 25.73 514.15 10.66 546.7 4.06 535.25 20.45 507.58 23.45 485.85 37.47 480.19 45.93 466.83 Z"/>
<path d="M 46.97 513.41 48.25 526.23 54.06 522.35 52.24 529.03 65.52 535 63.09 545.5 51.01 551.75 53.89 561.24 44.41 563.09 49.8 572.76 38.53 583.84 36.48 569.41 18.67 558.25 25.05 555.53 24.02 549.38 16.66 555.35 10.66 546.7 25.73 514.15 30.11 518.09 46.97 513.41 Z"/>
<path d="M 132.45 554.4 144.03 567.76 122.65 559.33 110.85 582.7 92.32 582.5 86.83 574.63 95.09 572.49 82.95 558.17 84.72 552.48 53.89 561.24 51.01 551.75 63.09 545.5 84.44 546.16 92.95 541.53 90.66 546.05 116.33 550.56 120.01 544.29 131.91 547.45 132.45 554.4 Z"/>
<path d="M 12.68 585.88 15.72 592.07 4.28 590.78 12.68 585.88 Z M 65.37 610.47 63.51 615.91 56.36 630.22 48.83 625.05 41.92 630.15 30.06 618.82 18.01 623.58 14.44 608.09 16.33 599.98 26.02 597.26 30.24 585.56 22.65 587.13 25.82 581.06 32.04 578.81 30.78 586.79 44.45 593.37 50.12 589.11 52.22 597.13 61.1 591.24 55.95 579 86.83 574.63 92.32 582.5 110.85 582.7 111.8 584.9 95.93 593.83 80.92 599.49 73.47 609.82 65.37 610.47 Z" fill-rule="evenodd"/>
<path d="M 71.52 630.6 74.02 640.16 69.16 647.6 82.94 681.86 19.76 643.59 14.7 645.95 17.78 640.92 23.42 644.36 29.06 631.33 18.01 623.58 30.06 618.82 41.92 630.15 48.83 625.05 56.36 630.22 63.51 615.91 65.37 610.47 73.47 609.82 71.52 630.6 Z"/>
<path d="M 71.52 630.6 73.47 609.82 80.92 599.49 95.93 593.83 98.81 604.25 88.72 611.09 111.14 632.26 111.14 632.33 74.02 640.16 71.52 630.6 Z"/>
<path d="M 115.55 605.02 118.98 623.63 111.14 632.26 88.72 611.09 98.81 604.25 95.93 593.83 111.8 584.9 115.55 605.02 Z"/>
<path d="M 319.95 668.81 300.55 679.33 305.8 687.19 298.75 684.09 276.34 674.28 299.84 658.95 302.81 665.1 315.96 663.37 319.95 668.81 Z"/>
</g>
</svg>
